<svg width="730" height="1293" viewBox="0 0 730 1293" fill="none" xmlns="http://www.w3.org/2000/svg">
<path d="M348.5 0V200L0.5 455V271L348.5 0Z" fill="#E1EBF6"/>
<path d="M730 263.5V455L348.5 200V0L730 263.5Z" fill="#3685D7"/>
<path d="M348.5 553V753L0.5 1008V824L348.5 553Z" fill="#E1EBF6"/>
<path d="M730 816.5V1008L348.5 753V553L730 816.5Z" fill="#3685D7"/>
<path d="M348.5 838V1038L0.5 1293V1109L348.5 838Z" fill="#E1EBF6"/>
<path d="M730 1101.5V1293L348.5 1038V838L730 1101.5Z" fill="#3685D7"/>
<path d="M348 274V474L0 729V545L348 274Z" fill="#E1EBF6"/>
<path d="M729.5 537.5V729L348 474V274L729.5 537.5Z" fill="#3685D7"/>
</svg>
